# xmcd
#
# Track frame offsets:
#	150
#	14430
#	27415
#	39318
#	53390
#	66581
#	79491
#	92185
#	103255
#	115385
#	129393
#	141076
#	153793
#	167858
#	180660
#	193756
#	204429
#	215037
#	228235
#	239255
#	251692
#	265928
#	277385
#	291014
#	305046
#	316257
#
# Disc length: 4392 seconds
#
# Revision: 1
# Processed by: cddbd v1.5.1PL0 Copyright (c) Steve Scherf et al.
# Submitted via: audiograbber 1.81.01
#
DISCID=8811261a
DTITLE=Sleepy John Estes - Jailhouse Blues
DYEAR=2002
DGENRE=Blues
TTITLE0=Floating Bridge
TTITLE1=Need More Blues
TTITLE2=Jack And Jill Blues
TTITLE3=Poor Man's Friend
TTITLE4=Hobo Jungle Blues
TTITLE5=Airplane Blues
TTITLE6=Everybody Oughta Make A Change
TTITLE7=Liqour Store Blues
TTITLE8=Easin' Back To Tennessee
TTITLE9=Fire Department Blues
TTITLE10=Cleanup At Home
TTITLE11=New Someday Baby
TTITLE12=Brownsville Blues
TTITLE13=Special Agent (Railroad Police Blues)
TTITLE14=Mailman Blues
TTITLE15=Time Is Drawing Near
TTITLE16=Mary Come On Home
TTITLE17=Jailhouse Blues
TTITLE18=Tell Me How About It (Mr. Tom's Blues)
TTITLE19=Drop Down (I Don't Feel Welcome Here)
TTITLE20=Don't You Want To Know (The Delta Boys)
TTITLE21=You Shouldn't Do That
TTITLE22=When The Saints Go Marching In
TTITLE23=Lawyer Clark Blues
TTITLE24=Little Laura Blues
TTITLE25=Working Man Blues
EXTD=Walle upped this
EXTT0=
EXTT1=
EXTT2=
EXTT3=
EXTT4=
EXTT5=
EXTT6=
EXTT7=
EXTT8=
EXTT9=
EXTT10=
EXTT11=
EXTT12=
EXTT13=
EXTT14=
EXTT15=
EXTT16=
EXTT17=
EXTT18=
EXTT19=
EXTT20=
EXTT21=
EXTT22=
EXTT23=
EXTT24=
EXTT25=
PLAYORDER=
